<svg width="80" height="80" viewBox="0 0 80 80" fill="none" xmlns="http://www.w3.org/2000/svg">
<g clip-path="url(#clip0)">
<path d="M76.6667 26.6667C74.8267 26.6667 73.3334 25.1767 73.3334 23.3333V10C73.3334 8.16 71.8367 6.66667 70 6.66667H56.6667C54.8267 6.66667 53.3334 5.17667 53.3334 3.33333C53.3334 1.49 54.8267 0 56.6667 0H70C75.5134 0 80 4.48667 80 10V23.3333C80 25.1767 78.5067 26.6667 76.6667 26.6667Z" fill="#14142A" fill-opacity="0.6"/>
<path d="M70 80.0002H56.6667C54.8267 80.0002 53.3334 78.5102 53.3334 76.6668C53.3334 74.8235 54.8267 73.3335 56.6667 73.3335H70C71.8367 73.3335 73.3334 71.8402 73.3334 70.0002V56.6668C73.3334 54.8235 74.8267 53.3335 76.6667 53.3335C78.5067 53.3335 80 54.8235 80 56.6668V70.0002C80 75.5135 75.5134 80.0002 70 80.0002Z" fill="#14142A" fill-opacity="0.6"/>
<path d="M23.3333 80.0002H10C4.48667 80.0002 0 75.5135 0 70.0002V56.6668C0 54.8235 1.49333 53.3335 3.33333 53.3335C5.17333 53.3335 6.66667 54.8235 6.66667 56.6668V70.0002C6.66667 71.8402 8.16333 73.3335 10 73.3335H23.3333C25.1733 73.3335 26.6667 74.8235 26.6667 76.6668C26.6667 78.5102 25.1733 80.0002 23.3333 80.0002Z" fill="#14142A" fill-opacity="0.6"/>
<path d="M3.33333 26.6667C1.49333 26.6667 0 25.1767 0 23.3333V10C0 4.48667 4.48667 0 10 0H23.3333C25.1733 0 26.6667 1.49 26.6667 3.33333C26.6667 5.17667 25.1733 6.66667 23.3333 6.66667H10C8.16333 6.66667 6.66667 8.16 6.66667 10V23.3333C6.66667 25.1767 5.17333 26.6667 3.33333 26.6667Z" fill="#14142A" fill-opacity="0.6"/>
<path d="M60 36.6665C58.16 36.6665 56.6666 35.1765 56.6666 33.3332V23.3332H23.3333V33.3332C23.3333 35.1765 21.84 36.6665 20 36.6665C18.16 36.6665 16.6666 35.1765 16.6666 33.3332V23.3332C16.6666 19.6565 19.6566 16.6665 23.3333 16.6665H56.6666C60.3433 16.6665 63.3333 19.6565 63.3333 23.3332V33.3332C63.3333 35.1765 61.84 36.6665 60 36.6665Z" fill="#14142A" fill-opacity="0.6"/>
<path d="M70 46.6668C70 48.5102 68.5067 50.0002 66.6667 50.0002H63.3333V56.6668C63.3333 60.3435 60.3433 63.3335 56.6667 63.3335H23.3333C19.6567 63.3335 16.6667 60.3435 16.6667 56.6668V50.0002H13.3333C11.4933 50.0002 10 48.5102 10 46.6668C10 44.8235 11.4933 43.3335 13.3333 43.3335H66.6667C68.5067 43.3335 70 44.8235 70 46.6668Z" fill="#14142A" fill-opacity="0.6"/>
</g>
<defs>
<clipPath id="clip0">
<rect width="80" height="80" fill="white"/>
</clipPath>
</defs>
</svg>
