<svg width="80" height="80" viewBox="0 0 80 80" fill="none" xmlns="http://www.w3.org/2000/svg">
<path fill-rule="evenodd" clip-rule="evenodd" d="M80 76.39H0V32.14L6.66667 27.2866V3.05664H73.3333V27.2966L80 32.14V76.39ZM10 41.4833V6.38997H70V41.4766L40 59.7233L10 41.4833ZM30 11.7633L34.35 19.7966L43.3333 21.45L37.04 28.07L38.24 37.1266L30 33.1833L21.76 37.1266L22.96 28.07L16.6667 21.45L25.65 19.7966L30 11.7633ZM56.6667 33.3333V36.6666H46.6667V33.3333H56.6667ZM63.3333 26.6666V30H46.6667V26.6666H63.3333ZM63.3333 20V23.3333H46.6667V20H63.3333ZM63.3333 13.3333V16.6666H46.6667V13.3333H63.3333Z" fill="#14142A" fill-opacity="0.6"/>
</svg>
