<svg width="80" height="80" viewBox="0 0 80 80" fill="none" xmlns="http://www.w3.org/2000/svg">
<path d="M78.4375 2.64822H70.7969C69.9375 2.64822 69.2344 3.35968 69.2344 4.22925V19.6601H63.7344V3.58103C63.7344 2.71146 63.0312 2 62.1719 2H41.8594C41 2 40.2969 2.71146 40.2969 3.58103V19.6601H10.7656V4.22925C10.7656 3.35968 10.0625 2.64822 9.20312 2.64822H1.5625C0.703125 2.64822 0 3.35968 0 5.81028V78C0 77.2885 0.703125 78 1.5625 78H78.4375C79.2969 78 80 77.2885 80 76.751V4.56126C80 3.35968 79.2969 2.64822 78.4375 2.64822ZM54.4062 12.419L60.6094 7.02767V17.8103L54.4062 12.419ZM57.9531 19.6601H46.0625L52 14.4901L57.9531 19.6601ZM57.9531 5.16206L52.0156 10.332L46.0781 5.16206H57.9531ZM43.4062 7.02767L49.6094 12.419L43.4062 17.8103V7.02767ZM27.4531 59.8498L21.25 65.2411V54.4585L27.4531 59.8498ZM23.9062 52.5929H35.7812L29.8438 57.7628L23.9062 52.5929ZM23.9062 67.1067L29.8438 61.9368L35.7812 67.1067H23.9062ZM38.4375 65.2411L32.2344 59.8498L38.4375 54.4585V65.2411ZM47.7656 59.8498L41.5625 65.2411V54.4585L47.7656 59.8498ZM44.2188 52.5929H56.0938L50.1562 57.7628L44.2188 52.5929ZM44.2188 67.1067L50.1562 61.9368L56.0938 67.1067H44.2188ZM58.75 65.2411L52.5469 59.8498L58.75 54.4585V65.2411ZM69.2344 67.1067H61.8906V51.0119C61.8906 50.1423 61.1875 49.4308 60.3281 49.4308H19.6875C18.8281 49.4308 18.125 50.1423 18.125 51.0119V67.0909H10.7812V46.253H69.2344V67.1067ZM30.3906 35.834L36.5938 30.4427V41.2253L30.3906 35.834ZM33.9375 43.0909H22.0469L27.9844 37.9209L33.9375 43.0909ZM27.9844 33.747L22.0469 28.5771H33.9375L27.9844 33.747ZM25.5938 35.834L19.3906 41.2253V30.4427L25.5938 35.834ZM69.2344 43.0909H39.7188V26.996C39.7188 26.1265 39.0156 25.415 38.1562 25.415H17.8438C16.9844 25.415 16.2812 26.1265 16.2812 26.996V43.0751H10.7656V22.8221H69.2188V43.0909H69.2344Z" fill="#14142A" fill-opacity="0.6"/>
</svg>
