<svg width="80" height="80" viewBox="0 0 80 80" fill="none" xmlns="http://www.w3.org/2000/svg">
<g clip-path="url(#clip0)">
<path d="M68.799 68.5572L69.9855 70.0209H18.6172L19.8038 68.5572L16.2936 65.0312L9.60266 72.5157L16.2936 80.0001L19.7873 76.4741L18.6008 75.0105H69.969L68.7825 76.4741L72.2763 80.0001L78.9671 72.5157L72.2763 65.0312L68.799 68.5572Z" fill="#14142A" fill-opacity="0.6"/>
<path d="M4.49377 54.7526L1 58.2786L8.41602 65.0312L15.832 58.2786L12.3383 54.7526L10.888 55.9501V9.09771L12.3383 10.2952L15.832 6.7526L8.41602 0L1 6.7526L4.49377 10.2786L5.94401 9.08108V55.9335L4.49377 54.7526Z" fill="#14142A" fill-opacity="0.6"/>
<path d="M79.0001 0H24.6654V54.8358H79.0001V0Z" fill="#14142A" fill-opacity="0.6"/>
</g>
<defs>
<clipPath id="clip0">
<rect width="80" height="80" fill="white"/>
</clipPath>
</defs>
</svg>
