<svg width="80" height="80" viewBox="0 0 80 80" fill="none" xmlns="http://www.w3.org/2000/svg">
<path d="M40 6.66667C58.38 6.66667 73.3333 21.62 73.3333 40C73.3333 58.38 58.38 73.3333 40 73.3333C21.62 73.3333 6.66667 58.38 6.66667 40C6.66667 21.62 21.62 6.66667 40 6.66667ZM40 0C17.91 0 0 17.91 0 40C0 62.09 17.91 80 40 80C62.09 80 80 62.09 80 40C80 17.91 62.09 0 40 0ZM53.3333 43.3333V36.6667H66.4367C64.93 24.61 55.39 15.07 43.3333 13.5633V26.6667H36.6667V13.5633C24.61 15.07 15.07 24.61 13.5633 36.6667H26.6667V43.3333H13.5633C15.07 55.39 24.6067 64.93 36.6667 66.4367V53.3333H43.3333V66.4367C55.39 64.93 64.93 55.3933 66.4367 43.3333H53.3333Z" fill="#14142A" fill-opacity="0.6"/>
</svg>
