<svg width="80" height="80" viewBox="0 0 80 80" fill="none" xmlns="http://www.w3.org/2000/svg">
<path d="M43.8133 27.2367C43.6967 27.0167 44.9533 26.8967 45.1767 26.8967C45.4233 26.9267 44.5233 28.4033 43.8133 27.2367ZM42.2767 79.8867C41.5167 79.93 40.7667 80 40 80C17.9067 80 0 62.09 0 40C0 17.91 17.9067 0 40 0C62.09 0 80 17.91 80 40C80 40.7667 79.93 41.5167 79.8867 42.2733C77.9467 40.1 75.6667 38.2433 73.1167 36.7967C72.9033 34.5333 72.51 32.4867 72.0967 31.2267C71.9033 30.6467 71.4667 30.1867 70.9 29.9667C70.0467 29.6333 66.4433 31.9567 65.9 30.8133C65.5433 30.05 64.82 31.3 63.9933 30.84C63.5933 30.62 62.48 29.1233 61.9767 29.3067C60.9467 29.6767 63.5567 32.52 64.27 32.8933C64.94 32.3867 67.11 31.3433 67.5767 32.7667C67.7633 33.32 67.7333 33.8833 67.6067 34.4467C65.19 33.73 62.6433 33.3333 60 33.3333C50.3833 33.3333 41.0333 38.6733 36.3233 47.76C35.9033 47.9533 35.49 48.1633 35.0533 48.2967C33.9 48.6433 32.72 48.0233 31.58 47.88C26.89 47.2867 25.36 41.9267 26.5833 38.06C26.7067 37.4267 26.2033 36.2533 26.4233 35.7633C26.95 34.59 28.0233 33.2733 28.9633 32.3833C29.49 31.8833 30.1667 32.01 30.7867 31.62C31.7433 31.0167 31.7567 29.7767 32.6933 29.0167C34.0267 27.9333 35.8467 27.9567 37.5867 27.7233C38.5133 27.6 42.04 26.8367 42.5967 27.5233C42.5967 27.65 43.2333 29.5367 42.5333 29.43C43.9767 29.5067 46.0333 31.9267 47.4033 31.36C48.1067 31.0667 47.85 28.9067 49.2933 29.95C50.1667 30.5767 54.08 30.8567 54.8933 30.18C55.3933 29.7667 55.6733 27.08 55.0667 26.7767C55.4533 27.16 53.03 27.19 52.8033 27.1033C52.4033 26.9567 52.03 27.4833 51.3867 27.1867C51.7733 27.37 49.2333 26.0067 50.66 24.9633C50.0633 25.4 49.5067 24.84 48.8633 25.32C48.42 25.68 49.07 25.92 48.4367 26.2333C47.43 26.7433 46.67 24.4833 46.29 24.2267C45.9033 23.9733 42.91 21.8733 43.7233 23.2433L46.3533 25.86C46.2233 25.9433 45.6633 24.9067 45.6633 25.6633C45.84 25.2133 45.73 27.5933 45.3167 26.82C45.1333 26.5233 45.6167 26.3567 45.3367 25.9267C45.3367 25.6433 44.5767 25.3667 44.43 25.1733C44.0133 24.6567 42.9067 23.5167 42.3067 23.2433C42.14 23.1667 39.76 23.5333 39.56 23.61C39.3267 23.9367 39.1267 24.28 38.9633 24.6467C38.47 24.83 38.0067 25.0667 37.5667 25.36L37.0433 26.5367C36.8167 26.74 34.4933 27.5067 34.48 27.5367C34.5767 27.2867 32.8567 26.9667 32.97 26.4667C33.0967 25.9167 33.68 24.2 33.53 23.5733C33.37 22.9167 37.11 24.52 37.35 22.79C37.4467 22.04 37.5033 21.1667 36.3067 21.04C36.5333 21.0667 38.6233 20.22 38.97 19.84C39.4567 19.28 40.5733 18.3667 41.3833 18.3667C42.33 18.3667 42.1267 16.99 42.5633 16.3167C43 16.4933 42.33 17.57 42.8533 18.0067C42.82 17.6633 44.3367 18.1967 44.4833 18.1167C44.8333 17.9333 46.7667 18.04 46.4667 17.1333C46.1333 16.21 46.6367 16.4833 47.07 16.29C47.0033 16.3167 47.8867 14.7767 48.2667 14.7833C47.9233 14.49 46.95 15.1533 46.5667 15.1233C45.55 15.0433 45.98 13.39 46.3633 12.9067C46.66 12.5233 45.5533 12.0533 45.54 12.7867C45.52 13.8833 44.5 14.8767 44.7367 16.3333C45.0967 18.53 42.2867 15.8033 42.04 15.9533C41.1067 16.52 40.3433 15.24 40.8267 14.4733C41.32 13.69 42.51 13.7267 43 12.8867C43.3467 12.2933 43.75 11.6033 44.2833 11.1533C46.0667 9.65667 46.56 10.8533 48.3367 11.0167C50.0733 11.1767 48.9233 11.43 48.6833 12.0967C48.4533 12.73 49.6367 12.9567 50.0467 12.4267C50.28 12.12 50.81 11.35 51.04 10.78C51.3367 10.04 54.0433 10.1233 52.1533 8.99333C50.9067 8.25 45.4733 6.75333 41.8333 6.75333C41.0467 6.75333 40.4967 7.63 39.8967 8.12667C38.71 9.11 35.67 11.04 33.98 10.4533C32.25 9.85667 28.5467 12.6533 27.9533 12.6733C27.7367 12.6867 27.9667 10.56 29.1467 10.4033C28.6367 10.48 33.3033 8.04667 33.1767 7.54C33.0233 6.94 23.8467 10.28 24.2567 10.95C24.4533 11.2567 25.2533 11.2567 24.2033 11.93C23.6033 12.2933 22.9633 14.6 22.4 14.6C20.7167 15.3367 20.61 13.15 18.7367 15.9633L15.7567 17.1633C11.33 21.8667 8.26667 27.8233 7.15667 34.44C7.11333 34.7033 8.27 35.1933 8.42 35.3733C8.79333 35.82 8.79333 37.7467 8.97667 38.3767C9.43667 39.97 10.5733 40.8567 11.4433 42.3067C11.9567 43.17 12.81 45.3533 12.54 46.26C12.9 45.6667 16.1067 48.9767 16.6933 49.6667C18.0733 51.29 19.1367 53.2567 16.8967 54.8633C16.1733 55.3833 17.9967 58.6267 17.0567 59.4233L15.8533 59.7333C14.6667 60.4633 15.2033 62.2533 15.9233 63.0067C21.2933 68.6267 28.62 72.3533 36.8067 73.13C38.2533 75.6767 40.1033 77.95 42.2767 79.8867ZM52.3 22.0967C52.28 21.61 51.6667 21.15 51.0267 21.9933C50.5767 22.5733 50.6567 23.4567 50.4133 23.85C50.0667 24.4333 52.3033 24.98 52.3033 24.43C52.3867 23.5067 54.7433 24.22 55.2033 24.3467C56.03 24.5767 57.3467 23.5933 55.9067 23.0767C54.7233 22.6433 54.1 22.18 53.9933 21.3333C53.9933 21.3333 54.62 20.7467 54.3467 20.78C53.62 20.87 52.3 23.4 52.3 22.0967ZM34.6367 18.4667C34.3567 18.75 34.6467 18.9333 34.9333 18.81C35.35 18.6267 35.91 18.6333 35.97 18.0767C36.02 17.5833 36.1167 17.9233 36.2367 17.7433C36.3533 17.5667 36.0133 17.2833 35.87 17.2567C35.6567 17.21 35.51 17.4867 35.3733 17.6033L35.1333 17.6667L34.9067 17.9567L34.9333 18.1167L34.6367 18.4667ZM36.22 19.6133C36.54 20.0667 38.9667 18.9633 38.58 19.0267C39.33 18.65 38.6767 18.61 38.2567 18.3933C38.1133 17.6767 37.9933 16.57 37.5467 16.1267L37.84 15.7867C37.15 14.79 36.64 16.9933 36.64 16.9933L37 16.89C37.2133 17.0733 36.76 17.2067 36.83 17.3433C37.1167 17.86 36.9 18.17 36.8567 18.45C36.81 18.7333 36.51 18.61 36.36 18.76C36.1833 18.98 37.22 19.01 37.2333 19.0433C37.27 19.1533 35.9833 19.34 36.22 19.6133ZM80 60C80 71.0433 71.0433 80 60 80C48.9567 80 40 71.0433 40 60C40 48.9567 48.9567 40 60 40C71.0433 40 80 48.9567 80 60ZM68.3333 51.6667L48.3333 59.1667L58.3333 61.6667L60.8467 71.6667L68.3333 51.6667Z" fill="#14142A" fill-opacity="0.6"/>
</svg>
