<?xml version="1.0" standalone="no"?>
<!DOCTYPE svg PUBLIC "-//W3C//DTD SVG 20010904//EN"
 "http://www.w3.org/TR/2001/REC-SVG-20010904/DTD/svg10.dtd">
<svg version="1.0" xmlns="http://www.w3.org/2000/svg"
 width="1654.000000pt" height="1166.000000pt" viewBox="0 0 1654.000000 1166.000000"
 preserveAspectRatio="xMidYMid meet">

<g transform="translate(0.000000,1166.000000) scale(0.100000,-0.100000)"
fill="#000000" stroke="none">
<path d="M12460 11443 c-44 -9 -252 -93 -309 -125 -76 -44 -236 -174 -306
-250 -82 -88 -160 -196 -234 -322 -65 -111 -109 -169 -144 -188 -19 -10 -20
-8 -14 44 3 30 26 106 51 170 25 64 49 137 52 161 l6 45 -56 21 c-180 67 -494
140 -731 171 -418 53 -640 60 -1275 40 -308 -10 -326 -12 -780 -76 -255 -36
-466 -67 -468 -68 -4 -5 133 -14 303 -21 268 -12 392 -34 435 -80 13 -14 21
-27 19 -30 -3 -2 -291 -40 -640 -83 l-634 -79 -158 -53 c-255 -85 -598 -263
-957 -498 -63 -41 -159 -95 -213 -119 -100 -44 -177 -89 -177 -104 0 -16 73
-31 124 -25 77 10 161 40 386 139 254 111 420 171 547 196 109 21 219 31 246
22 12 -4 -240 -128 -759 -375 -427 -203 -811 -382 -853 -398 -176 -67 -364
-182 -837 -508 -777 -537 -1020 -679 -1359 -790 -88 -29 -196 -67 -241 -86
-193 -79 -299 -106 -914 -238 -488 -104 -806 -161 -1119 -201 -219 -27 -364
-55 -408 -78 l-27 -15 59 -30 c141 -70 544 -170 925 -228 144 -22 652 -30 968
-15 479 23 836 72 1247 171 88 21 187 43 220 49 33 6 112 29 175 50 63 22 167
56 230 76 63 20 207 81 320 135 326 158 791 322 1065 376 162 32 354 37 454
10 140 -36 262 -120 306 -211 31 -63 28 -167 -7 -227 -42 -70 -81 -97 -260
-176 -260 -115 -387 -151 -878 -252 -135 -28 -309 -66 -387 -85 -78 -19 -191
-40 -250 -46 -86 -9 -162 -27 -368 -89 -532 -160 -921 -317 -1083 -439 -50
-37 -52 -40 -33 -50 34 -19 82 -12 220 29 272 82 644 126 1371 162 328 16
1415 16 1680 0 544 -34 735 -67 920 -163 253 -131 374 -362 340 -652 -27 -230
-127 -465 -295 -693 -125 -169 -356 -380 -491 -447 -81 -41 -392 -163 -459
-180 -33 -9 -119 -25 -191 -37 -166 -26 -229 -42 -254 -65 -25 -23 -19 -29 49
-49 43 -13 103 -16 280 -16 719 0 928 94 1798 803 233 190 429 347 436 350 7
2 58 43 114 90 57 48 135 108 175 135 106 71 482 291 553 323 182 82 426 145
530 136 89 -8 95 -12 95 -61 0 -67 -10 -85 -62 -121 -28 -18 -76 -56 -107 -84
-91 -81 -622 -439 -906 -611 -113 -69 -159 -104 -236 -181 -137 -136 -165
-196 -203 -431 -19 -117 -38 -153 -106 -194 -50 -31 -69 -36 -210 -54 -236
-30 -337 -74 -420 -183 -88 -117 -114 -227 -114 -472 0 -200 18 -349 60 -492
45 -155 75 -187 170 -181 l49 3 26 77 c14 42 38 96 52 120 58 99 261 308 437
449 52 43 136 116 185 164 50 48 248 210 441 361 192 150 384 306 425 347 41
40 119 107 174 148 56 41 222 173 370 295 149 121 300 238 337 260 37 21 205
158 373 304 169 146 321 274 337 284 31 20 96 145 151 291 83 222 80 400 -9
576 -37 74 -138 201 -220 278 -165 154 -309 179 -604 106 -79 -19 -131 -26
-210 -26 -127 0 -214 17 -380 76 -69 24 -196 69 -283 99 -244 86 -431 128
-637 144 l-95 7 2 48 c2 27 8 58 15 70 17 33 366 393 424 438 29 22 112 67
185 101 l134 62 175 7 175 8 155 52 c168 56 261 70 324 49 25 -8 57 -36 104
-88 110 -125 146 -155 276 -225 322 -176 494 -213 716 -152 167 45 303 74 375
81 93 8 201 -18 573 -140 158 -51 334 -104 391 -116 111 -23 208 -60 229 -87
6 -9 12 -34 12 -55 0 -117 70 -309 144 -398 128 -151 348 -231 636 -231 159
-1 263 32 353 111 61 54 100 118 146 241 119 314 89 491 -117 698 -101 101
-1030 1103 -1173 1265 -64 72 -176 190 -250 261 -74 72 -177 184 -231 250 -53
66 -166 194 -252 285 -86 91 -212 224 -280 297 -153 162 -186 221 -194 349 -7
112 21 226 102 427 l64 157 -51 -1 c-29 -1 -63 -4 -77 -6z m-883 -1193 c105
-17 351 -99 514 -171 85 -38 163 -69 172 -69 9 0 41 -9 71 -21 148 -55 353
-235 420 -369 52 -105 46 -149 -28 -184 -42 -20 -154 -21 -200 -2 -41 17 -100
127 -160 295 l-41 115 -80 43 c-246 132 -542 204 -841 204 -242 1 -373 -25
-613 -120 -162 -65 -313 -116 -381 -130 -25 -5 -84 -23 -131 -39 -159 -55
-177 -57 -539 -56 -263 0 -344 4 -375 15 -56 20 -56 42 -1 74 74 43 205 65
401 65 268 1 382 24 830 170 366 119 548 166 705 183 75 8 218 6 277 -3z
m-1189 -1554 c17 -9 32 -19 32 -22 0 -11 -150 -72 -205 -84 -151 -29 -206 -45
-285 -79 -110 -47 -149 -76 -298 -214 -109 -101 -215 -178 -228 -164 -7 7 155
268 189 304 72 77 267 195 392 238 134 46 335 56 403 21z m-3608 -41 c244 -39
512 -121 715 -220 160 -78 258 -146 365 -254 81 -82 167 -201 144 -201 -4 0
-109 67 -233 149 -257 170 -431 262 -609 321 -410 137 -823 142 -1316 15 -251
-64 -719 -231 -976 -347 -160 -73 -286 -120 -354 -132 -35 -7 -38 -6 -27 8 27
32 213 144 395 237 393 201 848 359 1188 414 56 9 123 21 148 25 72 14 441 4
560 -15z m2685 -1089 c233 -35 444 -97 620 -181 126 -60 260 -144 231 -145
-11 0 -148 42 -305 94 -479 158 -628 189 -916 188 -231 0 -611 -33 -905 -77
l-35 -5 35 20 c85 48 288 98 485 120 124 14 672 4 790 -14z"/>
<path d="M5110 2350 l0 -140 255 0 255 0 0 -415 0 -415 155 0 155 0 0 415 0
415 255 0 255 0 0 140 0 140 -665 0 -665 0 0 -140z"/>
<path d="M6600 1953 c-133 -296 -245 -546 -247 -556 -5 -16 6 -17 162 -15
l167 3 45 108 46 107 296 0 297 0 45 -107 46 -108 171 -3 c95 -1 172 0 172 2
0 3 -112 251 -248 553 l-249 548 -230 3 -230 2 -243 -537z m564 109 c47 -108
86 -201 86 -205 0 -4 -81 -7 -180 -7 -99 0 -180 3 -180 6 0 15 173 404 180
404 4 0 46 -89 94 -198z"/>
<path d="M7900 2138 c0 -390 6 -445 60 -554 70 -142 208 -208 466 -223 358
-21 591 38 684 174 77 112 90 197 90 623 l0 332 -155 0 -155 0 0 -414 0 -413
-61 -7 c-79 -8 -498 -8 -566 0 l-53 7 0 413 0 414 -155 0 -155 0 0 -352z"/>
<path d="M9520 1935 l0 -555 155 0 155 0 0 195 0 195 99 0 99 0 187 -195 188
-195 206 0 206 0 -193 193 -194 194 68 11 c200 33 296 147 296 352 0 198 -87
310 -270 349 -35 7 -217 11 -527 11 l-475 0 0 -555z m948 183 l3 -118 -321 0
-320 0 0 113 c0 63 3 117 7 120 4 4 146 6 317 5 l311 -3 3 -117z"/>
<path d="M11110 1953 c-133 -296 -245 -546 -247 -556 -5 -16 6 -17 162 -15
l167 3 45 108 46 107 296 0 297 0 45 -107 46 -108 171 -3 c95 -1 172 0 172 2
0 3 -112 251 -248 553 l-249 548 -230 3 -230 2 -243 -537z m564 109 c47 -108
86 -201 86 -205 0 -4 -81 -7 -180 -7 -99 0 -180 3 -180 6 0 15 173 404 180
404 4 0 46 -89 94 -198z"/>
<path d="M6460 608 c0 -28 1 -28 61 -28 60 0 60 0 57 27 -3 26 -5 28 -60 28
-57 1 -58 0 -58 -27z"/>
<path d="M7570 608 c0 -28 1 -28 61 -28 60 0 60 0 57 27 -3 26 -5 28 -60 28
-57 1 -58 0 -58 -27z"/>
<path d="M8475 626 c-71 -27 -95 -80 -95 -212 0 -92 12 -138 47 -176 41 -44
143 -58 302 -42 l61 7 0 55 0 55 -52 -6 c-29 -4 -97 -9 -150 -13 l-98 -7 0
128 0 128 98 -7 c53 -3 121 -9 151 -13 l53 -6 -7 54 c-4 30 -9 56 -11 58 -2 2
-61 6 -131 8 -96 3 -138 0 -168 -11z"/>
<path d="M11875 626 c-71 -27 -95 -80 -95 -212 0 -92 12 -138 47 -176 41 -44
143 -58 302 -42 l61 7 0 55 0 55 -52 -6 c-29 -4 -97 -9 -150 -13 l-98 -7 0
128 0 128 98 -7 c53 -3 121 -9 151 -13 l53 -6 -7 54 c-4 30 -9 56 -11 58 -2 2
-61 6 -131 8 -96 3 -138 0 -168 -11z"/>
<path d="M2822 578 l3 -53 83 -3 82 -3 0 -159 0 -160 55 0 55 0 0 160 0 160
75 0 75 0 0 -45 0 -45 40 0 40 0 0 -70 0 -70 -40 0 -40 0 0 -45 0 -45 165 0
165 0 0 45 0 45 -76 0 -75 0 3 43 c3 40 6 43 57 70 30 15 70 27 88 27 l33 0 0
51 0 52 -47 -7 c-25 -3 -67 -18 -92 -32 -43 -24 -46 -24 -58 -8 -7 10 -13 21
-13 26 0 4 -29 8 -65 8 l-65 0 0 55 0 55 -226 0 -225 0 3 -52z"/>
<path d="M5100 415 l0 -215 175 0 175 0 0 55 0 55 -125 0 -125 0 0 160 0 160
-50 0 -50 0 0 -215z"/>
<path d="M13260 415 l0 -215 175 0 175 0 0 55 0 55 -125 0 -125 0 0 160 0 160
-50 0 -50 0 0 -215z"/>
<path d="M13572 578 l3 -53 83 -3 82 -3 0 -159 0 -160 55 0 55 0 0 160 0 159
83 3 82 3 3 53 3 52 -226 0 -226 0 3 -52z"/>
<path d="M14080 415 l0 -217 168 4 c194 4 218 12 251 81 29 59 29 202 2 264
-32 69 -58 77 -253 81 l-168 4 0 -217z m330 0 l0 -105 -115 0 -115 0 0 105 0
105 115 0 115 0 0 -105z"/>
<path d="M7160 565 l0 -45 -45 0 -45 0 0 -45 0 -45 44 0 44 0 4 -95 c3 -83 6
-97 26 -117 21 -21 31 -23 138 -22 63 1 116 3 118 5 2 2 6 26 9 52 l5 49 -32
-6 c-17 -2 -61 -8 -98 -12 l-68 -6 0 76 0 76 95 0 95 0 0 45 0 45 -95 0 -95 0
0 45 0 45 -50 0 -50 0 0 -45z"/>
<path d="M3728 523 l-48 -4 0 -45 0 -45 108 6 c59 4 113 8 120 11 9 3 12 -4
10 -18 -3 -21 -11 -24 -108 -36 -69 -8 -113 -19 -130 -31 -35 -25 -46 -76 -27
-123 20 -49 56 -55 172 -32 68 13 92 15 106 6 10 -7 35 -12 55 -12 l37 0 -5
129 c-7 184 -22 203 -166 199 -42 -1 -98 -3 -124 -5z m192 -207 c0 -21 -6 -24
-52 -30 -29 -3 -70 -9 -90 -12 -36 -6 -38 -5 -38 19 0 22 5 27 38 32 20 4 44
8 52 10 8 1 32 3 53 4 33 1 37 -2 37 -23z"/>
<path d="M4251 509 c-58 -19 -65 -19 -73 -5 -6 10 -23 16 -48 16 l-40 0 0
-160 0 -160 50 0 50 0 0 94 0 94 62 21 c111 37 108 40 108 -94 l0 -115 50 0
50 0 0 108 c-1 127 -11 181 -41 205 -28 23 -87 21 -168 -4z"/>
<path d="M4573 515 c-70 -30 -64 -151 9 -173 18 -6 68 -13 111 -17 69 -6 77
-9 77 -27 0 -21 -3 -21 -120 -15 l-120 7 0 -44 0 -43 53 -7 c81 -9 188 -6 227
7 76 26 75 152 -2 175 -18 6 -68 13 -110 17 -73 6 -78 8 -78 30 0 21 4 23 33
20 17 -2 69 -6 115 -9 l82 -5 0 43 c0 37 -4 45 -22 50 -44 11 -222 6 -255 -9z"/>
<path d="M5589 521 c-77 -25 -99 -60 -99 -156 0 -135 38 -169 190 -170 144 0
190 33 198 145 6 80 -18 144 -61 167 -36 19 -185 28 -228 14z m191 -161 l0
-70 -95 0 -95 0 0 70 0 70 95 0 95 0 0 -70z"/>
<path d="M6763 515 c-70 -30 -64 -151 9 -173 18 -6 68 -13 111 -17 69 -6 77
-9 77 -27 0 -21 -3 -21 -120 -15 l-120 7 0 -44 0 -43 53 -7 c81 -9 188 -6 227
7 76 26 75 152 -2 175 -18 6 -68 13 -110 17 -73 6 -78 8 -78 30 0 21 4 23 33
20 17 -2 69 -6 115 -9 l82 -5 0 43 c0 37 -4 45 -22 50 -44 11 -222 6 -255 -9z"/>
<path d="M7903 523 c-32 -6 -72 -51 -79 -89 -3 -19 -4 -66 -2 -105 3 -65 7
-74 35 -99 39 -35 95 -45 208 -35 l85 7 0 50 c0 47 -1 50 -22 45 -13 -3 -65
-9 -115 -13 l-93 -7 0 83 0 83 98 -6 c53 -3 105 -9 115 -13 15 -5 17 1 17 44
l0 49 -46 7 c-50 6 -165 6 -201 -1z"/>
<path d="M8929 521 c-77 -25 -99 -60 -99 -156 0 -135 38 -169 190 -170 144 0
190 33 198 145 6 80 -18 144 -61 167 -36 19 -185 28 -228 14z m191 -161 l0
-70 -95 0 -95 0 0 70 0 70 95 0 95 0 0 -70z"/>
<path d="M9435 510 c-43 -17 -50 -18 -58 -5 -5 9 -23 15 -47 15 l-40 0 0 -160
0 -160 50 0 50 0 0 95 0 96 46 19 c25 11 57 20 70 20 24 0 24 0 24 -115 l0
-115 45 0 45 0 0 94 0 94 49 21 c91 39 91 38 91 -94 l0 -115 50 0 50 0 0 103
c-1 193 -22 234 -116 224 -29 -3 -68 -14 -89 -24 l-37 -20 -24 24 c-29 29 -88
30 -159 3z"/>
<path d="M10125 523 c-11 -2 -39 -10 -63 -18 -37 -12 -44 -12 -49 0 -3 10 -19
15 -44 15 l-39 0 0 -230 0 -230 50 0 50 0 0 70 0 70 89 0 c143 0 178 23 188
125 9 82 -4 144 -37 177 -24 23 -36 28 -77 27 -26 -1 -57 -3 -68 -6z m85 -158
l0 -75 -90 0 -90 0 0 59 0 60 53 10 c139 28 127 34 127 -54z"/>
<path d="M10448 523 l-48 -4 0 -45 0 -45 108 6 c59 4 113 8 120 11 9 3 12 -4
10 -18 -3 -21 -11 -24 -108 -36 -69 -8 -113 -19 -130 -31 -35 -25 -46 -76 -27
-123 20 -49 56 -55 172 -32 68 13 92 15 106 6 10 -7 35 -12 55 -12 l37 0 -5
129 c-7 184 -22 203 -166 199 -42 -1 -98 -3 -124 -5z m192 -207 c0 -21 -6 -24
-52 -30 -29 -3 -70 -9 -90 -12 -36 -6 -38 -5 -38 19 0 22 5 27 38 32 20 4 44
8 52 10 8 1 32 3 53 4 33 1 37 -2 37 -23z"/>
<path d="M10981 509 c-58 -19 -65 -19 -73 -5 -6 10 -23 16 -48 16 l-40 0 0
-160 0 -160 50 0 50 0 0 94 0 94 62 21 c111 37 108 40 108 -94 l0 -115 50 0
50 0 0 113 c0 127 -11 180 -43 202 -29 20 -89 18 -166 -6z"/>
<path d="M12329 521 c-77 -25 -99 -60 -99 -156 0 -135 38 -169 190 -170 144 0
190 33 198 145 6 80 -18 144 -61 167 -36 19 -185 28 -228 14z m191 -161 l0
-70 -95 0 -95 0 0 70 0 70 95 0 95 0 0 -70z"/>
<path d="M5995 511 c-49 -20 -60 -48 -60 -146 0 -85 2 -96 24 -119 39 -41 102
-44 229 -10 21 6 22 3 22 -41 l0 -48 -107 7 c-60 4 -118 10 -131 13 -22 5 -23
3 -20 -43 l3 -49 106 -9 c129 -11 173 -3 211 34 l28 28 0 196 0 196 -142 -1
c-79 0 -152 -4 -163 -8z m215 -130 l0 -49 -42 -10 c-24 -6 -64 -14 -90 -17
l-48 -7 0 66 0 66 90 0 90 0 0 -49z"/>
<path d="M6380 480 l0 -40 45 0 45 0 0 -75 0 -75 -45 0 -45 0 0 -45 0 -45 140
0 140 0 0 45 0 45 -50 0 -51 0 3 73 3 72 48 3 47 3 0 40 0 39 -140 0 -140 0 0
-40z"/>
<path d="M7490 480 l0 -40 45 0 45 0 0 -75 0 -75 -45 0 -45 0 0 -45 0 -45 140
0 140 0 0 45 0 45 -50 0 -51 0 3 73 3 72 48 3 47 3 0 40 0 39 -140 0 -140 0 0
-40z"/>
<path d="M11224 503 c4 -10 32 -82 64 -160 51 -127 60 -143 81 -143 17 0 22
-4 17 -16 -3 -9 -6 -20 -6 -26 0 -6 -25 -8 -70 -3 l-70 7 0 -45 c0 -50 10 -57
86 -57 55 0 100 17 118 45 13 20 146 392 146 409 0 3 -21 6 -47 6 l-48 0 -38
-121 c-21 -67 -40 -120 -42 -117 -2 2 -23 55 -48 118 l-44 115 -53 3 c-47 3
-52 1 -46 -15z"/>
<path d="M12687 283 c-4 -3 -7 -24 -7 -45 l0 -38 55 0 55 0 0 45 0 45 -48 0
c-27 0 -52 -3 -55 -7z"/>
<path d="M12887 284 c-4 -4 -7 -25 -7 -46 0 -37 1 -38 35 -38 32 0 35 -2 35
-30 0 -28 -3 -30 -35 -30 -31 0 -35 -3 -35 -26 0 -26 2 -26 46 -21 25 2 51 10
57 16 6 6 11 46 12 94 l0 82 -50 3 c-28 2 -54 0 -58 -4z"/>
</g>
</svg>
