<svg width="36" height="36" viewBox="0 0 36 36" fill="none" xmlns="http://www.w3.org/2000/svg">
<path d="M34.4332 27.0609H30.9287C30.9949 26.8796 31.0308 26.6869 31.0326 26.4943V17.4276C31.0326 16.4888 30.2713 15.7275 29.3324 15.7275H25.2611C25.3291 15.5462 25.3631 15.3535 25.365 15.1609V6.09415C25.365 5.15536 24.6036 4.39414 23.6647 4.39414H14.5965C13.6575 4.39414 12.8962 5.15536 12.8962 6.09415V15.1609C12.8981 15.3535 12.934 15.5462 13.0001 15.7275H8.92882C7.98988 15.7275 7.22853 16.4888 7.22853 17.4276V26.4943C7.23042 26.6869 7.26631 26.8796 7.33243 27.0609H5.52823C4.9029 27.0609 4.3947 26.5528 4.3947 25.9276V5.00047C4.39659 4.09758 4.03764 3.23246 3.39909 2.5959L1.9595 1.15845C1.73847 0.945005 1.38518 0.946894 1.16603 1.16601C0.946885 1.38512 0.944996 1.73834 1.15848 1.95934L2.59617 3.3968C3.02313 3.8218 3.26117 4.39792 3.25929 4.99859V25.9257C3.25929 27.1781 4.27379 28.1924 5.52634 28.1924H7.85764C6.70333 29.3201 6.34626 31.0333 6.95459 32.5274C7.56292 34.0234 9.01573 35 10.6291 35C12.2425 35 13.6953 34.0234 14.3036 32.5293C14.912 31.0352 14.5549 29.322 13.4006 28.1943H24.8606C23.7063 29.322 23.3492 31.0352 23.9575 32.5293C24.5659 34.0234 26.0187 35 27.6321 35C29.2454 35 30.6983 34.0234 31.3066 32.5293C31.9149 31.0352 31.5578 29.322 30.4035 28.1943H34.4332C34.7468 28.1943 35 27.9412 35 27.6276C35 27.316 34.7468 27.0609 34.4332 27.0609ZM24.2315 16.8609H27.6321V20.8276L26.2718 19.8076C26.0697 19.6565 25.7938 19.6565 25.5917 19.8076L24.2315 20.8276V16.8609ZM18.5638 5.52559H21.9644V9.49228L20.6042 8.47228C20.402 8.32116 20.1262 8.32116 19.9241 8.47228L18.5638 9.49228V5.52559ZM14.0297 12.8942V11.1942V10.0608V8.36083V7.22749V6.09415C14.0297 5.78059 14.2829 5.52748 14.5965 5.52748H17.4303V10.6275C17.4303 10.8428 17.5512 11.0393 17.7439 11.1337C17.9366 11.2301 18.1652 11.2093 18.3371 11.0808L20.2641 9.63584L22.1911 11.0808C22.363 11.2093 22.5935 11.2301 22.7843 11.1337C22.977 11.0374 23.0979 10.841 23.0979 10.6275V5.52748H23.6647C23.9783 5.52748 24.2315 5.78059 24.2315 6.09415V15.1609C24.2315 15.4744 23.9783 15.7275 23.6647 15.7275H14.5965C14.2829 15.7275 14.0297 15.4744 14.0297 15.1609V14.0275V12.8942ZM10.6291 16.8609H14.0297V20.8276L12.6695 19.8076C12.4673 19.6565 12.1915 19.6565 11.9894 19.8076L10.6291 20.8276V16.8609ZM13.4629 31.0276C13.4629 32.5935 12.1934 33.861 10.6291 33.861C9.06485 33.861 7.79529 32.5917 7.79529 31.0276C7.79529 29.4636 9.06485 28.1943 10.6291 28.1943C12.1934 28.1962 13.4611 29.4636 13.4629 31.0276ZM18.5638 25.3609V26.4943C18.5638 26.8078 18.3107 27.0609 17.9971 27.0609H8.92882C8.61521 27.0609 8.36206 26.8078 8.36206 26.4943V17.4276C8.36206 17.114 8.61521 16.8609 8.92882 16.8609H9.49559V21.9609C9.49559 22.1763 9.6165 22.3708 9.8092 22.4671C10.0019 22.5635 10.2305 22.5427 10.4024 22.4143L12.3294 20.9692L14.2564 22.4143C14.4283 22.5427 14.6588 22.5635 14.8496 22.4671C15.0423 22.3708 15.1632 22.1744 15.1632 21.9609V16.8609H17.9971C18.3107 16.8609 18.5638 17.114 18.5638 17.4276V18.5609V19.6942V21.3942V22.5276V24.2276V25.3609ZM19.6974 18.5609V17.4276C19.6974 17.114 19.9505 16.8609 20.2641 16.8609H23.0979V21.9609C23.0979 22.1763 23.2188 22.3708 23.4115 22.4671C23.6042 22.5635 23.8328 22.5427 24.0048 22.4143L25.9318 20.9692L27.8588 22.4143C28.0307 22.5427 28.2612 22.5635 28.452 22.4671C28.6447 22.3708 28.7656 22.1744 28.7656 21.9609V16.8609H29.3324C29.646 16.8609 29.8991 17.114 29.8991 17.4276V26.4943C29.8991 26.8078 29.6441 27.0609 29.3324 27.0609H20.2641C19.9505 27.0609 19.6974 26.8078 19.6974 26.4943V25.3609V24.2276V22.5276V21.3942V19.6942V18.5609ZM30.4659 31.0276C30.4659 32.5935 29.1963 33.861 27.6321 33.861C26.0678 33.861 24.7982 32.5917 24.7982 31.0276C24.7982 29.4636 26.0678 28.1943 27.6321 28.1943C29.1963 28.1962 30.464 29.4636 30.4659 31.0276Z" fill="#0476D9" stroke="#0476D9" stroke-width="0.56" stroke-miterlimit="10"/>
<path d="M10.6289 32.7279C11.5678 32.7279 12.3292 31.9667 12.3292 31.0279C12.3292 30.0891 11.5678 29.3279 10.6289 29.3279C9.68994 29.3279 8.92859 30.0891 8.92859 31.0279C8.92859 31.9667 9.68994 32.7279 10.6289 32.7279ZM10.6289 30.4612C10.9425 30.4612 11.1956 30.7143 11.1956 31.0279C11.1956 31.3414 10.9425 31.5946 10.6289 31.5946C10.3153 31.5946 10.0621 31.3414 10.0621 31.0279C10.0621 30.7162 10.3153 30.4612 10.6289 30.4612Z" fill="#0476D9" stroke="#0476D9" stroke-width="0.56" stroke-miterlimit="10"/>
<path d="M27.6316 29.3279C26.9439 29.3279 26.3243 29.7416 26.0598 30.3762C25.7972 31.0109 25.9426 31.7438 26.4282 32.2292C26.9137 32.7147 27.6467 32.862 28.2815 32.5976C28.9163 32.335 29.3319 31.7155 29.3319 31.026C29.3319 30.0891 28.5706 29.3279 27.6316 29.3279ZM27.6316 31.5946C27.318 31.5946 27.0648 31.3415 27.0648 31.0279C27.0648 30.7143 27.318 30.4612 27.6316 30.4612C27.9452 30.4612 28.1984 30.7143 28.1984 31.0279C28.1984 31.3415 27.9452 31.5946 27.6316 31.5946Z" fill="#0476D9" stroke="#0476D9" stroke-width="0.56" stroke-miterlimit="10"/>
</svg>
