<svg width="34" height="34" viewBox="0 0 34 34" fill="none" xmlns="http://www.w3.org/2000/svg">
<path opacity="0.85" d="M19.9881 10.0273H14.0117V14.011H10.028V19.9874H14.0117V23.9711H19.9881V19.9874H23.9718V14.011H19.9881V10.0273ZM21.9809 16.0038V17.9966H17.9954V21.9802H16.0045V17.9966H12.0189V16.0038H16.0045V12.0182H17.9954V16.0019H21.9809V16.0038Z" fill="url(#paint0_linear)"/>
<path opacity="0.85" d="M29.0209 4.97911C25.8098 1.768 21.5409 0 17 0C12.4591 0 8.19022 1.768 4.97911 4.97911C1.768 8.19022 0 12.4591 0 17C0 19.4272 0.500557 21.7713 1.48845 23.9662C2.31956 25.8117 3.45289 27.4701 4.86767 28.9076L1.01811 34H17C21.5409 34 25.8098 32.232 29.0209 29.0209C32.232 25.8098 34 21.5409 34 17C34 12.4591 32.232 8.19022 29.0209 4.97911ZM17 32.0072H5.02255L7.53667 28.6828L6.868 28.0708C3.77022 25.2337 1.99279 21.1971 1.99279 17C1.99279 8.72478 8.72478 1.99278 17 1.99278C25.2752 1.99278 32.0072 8.72478 32.0072 17C32.0072 25.2752 25.2752 32.0072 17 32.0072Z" fill="url(#paint1_linear)"/>
<defs>
<linearGradient id="paint0_linear" x1="10.028" y1="10.0273" x2="24.9588" y2="11.1794" gradientUnits="userSpaceOnUse">
<stop stop-color="#0476D9"/>
<stop offset="1" stop-color="#00E3F8"/>
</linearGradient>
<linearGradient id="paint1_linear" x1="0" y1="0" x2="36.4067" y2="2.80916" gradientUnits="userSpaceOnUse">
<stop stop-color="#0476D9"/>
<stop offset="1" stop-color="#00E3F8"/>
</linearGradient>
</defs>
</svg>
