<svg width="34" height="34" viewBox="0 0 34 34" fill="none" xmlns="http://www.w3.org/2000/svg">
<path d="M17 0C7.62733 0 0 7.62544 0 17V31.5199C0 32.8874 1.11255 34 2.48011 34H31.5217C32.8893 34 33.9999 32.8874 33.9999 31.5199V17C33.9999 7.62544 26.3745 0 17 0ZM24.7916 31.875H9.20833V22.6667H24.7916V31.875ZM24.7916 20.5417H18.224C17.9803 20.1186 17.5232 19.8333 17 19.8333C16.4768 19.8333 16.0197 20.1186 15.776 20.5417H9.20833V17.7083H24.7916V20.5417ZM31.875 31.5199C31.875 31.7126 31.7144 31.875 31.5217 31.875H26.9166V16.6449C26.9166 16.0593 26.4406 15.5833 25.8551 15.5833H8.14676C7.55932 15.5833 7.08332 16.0593 7.08332 16.6449V31.875H2.48011C2.28744 31.875 2.125 31.7126 2.125 31.5199V17C2.125 8.79656 8.79844 2.125 17 2.125C25.2034 2.125 31.875 8.79656 31.875 17V31.5199Z" fill="white"/>
</svg>
