<svg width="34" height="30" viewBox="0 0 34 30" fill="none" xmlns="http://www.w3.org/2000/svg">
<path d="M8.38961 27.5V7.5H30.7619V16.9283C30.7619 22.0617 22.3723 20 22.3723 20C22.3723 20 24.4958 27.5 18.6846 27.5H8.38961ZM33.5584 17.9833V5H5.59307V30H19.8405C24.2628 30 33.5584 20.9717 33.5584 17.9833ZM19.5758 20H12.5844V18.75H19.5758V20ZM26.5671 15H12.5844V16.25H26.5671V15ZM26.5671 11.25H12.5844V12.5H26.5671V11.25ZM30.7619 3.75H4.19481V27.5H2.79654V2.5H30.7619V3.75ZM27.9654 1.25H1.39827V25H0V0H27.9654V1.25Z" fill="#E2C933"/>
</svg>
