<svg width="34" height="34" viewBox="0 0 34 34" fill="none" xmlns="http://www.w3.org/2000/svg">
<path opacity="0.85" d="M23.9194 22.3458L21.4544 19.9073C20.8934 19.3538 19.9659 19.3992 19.4673 20.0414C19.0498 20.5778 19.1405 21.3561 19.624 21.8339L21.1106 23.3035C21.1125 23.3054 21.1106 23.3111 21.1068 23.3111H13.8252C10.9729 23.3111 8.53249 25.5003 8.37571 28.3468C8.29071 29.8882 8.84416 31.3502 9.91138 32.4306C10.9125 33.443 12.2517 34.0003 13.6797 34.0003C14.4372 34.0003 15.0473 33.3656 15.0057 32.5987C14.9679 31.9036 14.3654 31.3464 13.6703 31.3445C12.1063 31.3388 10.8577 29.958 11.0409 28.3393C11.1902 27.0284 12.4708 25.9668 13.7893 25.9668H21.2296C21.2334 25.9668 21.2353 25.9706 21.2315 25.9744L19.6222 27.5743C19.1348 28.0578 19.0668 28.9116 19.5183 29.4273C19.7827 29.7314 20.151 29.8825 20.5194 29.8825C20.8594 29.8825 21.1975 29.754 21.4563 29.4972L23.9269 27.0397C24.5578 26.4126 24.9035 25.5796 24.9035 24.6918C24.9016 23.8041 24.5522 22.9729 23.9194 22.3458Z" fill="url(#paint0_linear)"/>
<path opacity="0.85" d="M28.6828 0H5.31723C2.38 0 0 2.38 0 5.31722V20.6531C0 23.5677 2.35923 25.942 5.27 25.9647C5.90467 25.9703 6.54122 25.4528 6.62811 24.8238C6.73766 24.0134 6.11811 23.3202 5.33233 23.3089C3.86089 23.2862 2.65578 22.1208 2.65578 20.6474V5.695C2.65578 5.69122 2.65956 5.68933 2.66333 5.69122L14.195 12.8614C15.0601 13.3998 16.0291 13.668 17 13.668C17.9709 13.668 18.9399 13.3998 19.805 12.8614L31.3367 5.69122C31.3404 5.68933 31.3442 5.69122 31.3442 5.695V20.6833C31.3272 22.1227 30.158 23.2919 28.7187 23.3089C28.0613 23.3164 27.472 23.783 27.3738 24.4328C27.251 25.2563 27.8857 25.9647 28.6865 25.9647C31.1893 25.9647 33.2935 24.2269 33.8527 21.8922C33.949 21.4956 34 21.08 34 20.6531V5.31722C34 2.38 31.62 0 28.6828 0ZM30.2978 3.20167C30.3017 3.20555 30.2954 3.21069 30.2907 3.21359L18.4034 10.6061C17.5364 11.1444 16.4617 11.1444 15.5966 10.6061L3.70925 3.21359C3.70458 3.21069 3.69833 3.20555 3.70222 3.20167C4.14989 2.85978 4.70711 2.65578 5.31155 2.65578H28.6865C29.2929 2.65578 29.8501 2.85978 30.2978 3.20167Z" fill="url(#paint1_linear)"/>
<defs>
<linearGradient id="paint0_linear" x1="8.36719" y1="19.5234" x2="26.0421" y2="21.0813" gradientUnits="userSpaceOnUse">
<stop stop-color="#0476D9"/>
<stop offset="1" stop-color="#00E3F8"/>
</linearGradient>
<linearGradient id="paint1_linear" x1="0" y1="0" x2="36.2533" y2="3.66301" gradientUnits="userSpaceOnUse">
<stop stop-color="#0476D9"/>
<stop offset="1" stop-color="#00E3F8"/>
</linearGradient>
</defs>
</svg>
